<?xml version="1.0" encoding="utf-8"?>
<!-- Generator: Adobe Illustrator 16.0.0, SVG Export Plug-In . SVG Version: 6.00 Build 0)  -->
<!DOCTYPE svg PUBLIC "-//W3C//DTD SVG 1.1//EN" "http://www.w3.org/Graphics/SVG/1.1/DTD/svg11.dtd">
<svg version="1.1" id="Capa_1" xmlns="http://www.w3.org/2000/svg" xmlns:xlink="http://www.w3.org/1999/xlink" x="0px" y="0px"
	 width="283.46px" height="283.46px" viewBox="0 0 283.46 283.46" enable-background="new 0 0 283.46 283.46" xml:space="preserve">
<g>
	<path fill="#CE6B00" d="M246.508,65.274L246.508,65.274c0,0,0-0.002,0,0.004C246.508,65.278,246.508,65.278,246.508,65.274z"/>
	<path fill="#CE6B00" d="M237.68,88.185c-4.88,1.35-8.725,1.138-8.725,1.138l0.159-0.927c4.54-3.637,16.001-14.793,17.513-20.014
		c0.658-2.255-0.119-3.031-0.124-3.107l-14.634,6.216l-12.246,5.524l0,0c-8.453-8.947-21.249-14.648-35.555-14.648
		c-25.457,0-46.098,18.029-46.098,40.285c0,4.068,0.606,11.492,1.885,15.197c0,1.168,0.046-1.17,0,0
		c-16.394-0.451-37.404-7.172-56.117-16.655C46.828,82.495,44.518,69.55,44.518,69.55c-5.798,6.154-8.788,26.535-2.912,42.518
		c3.763,10.231,16.693,19.413,16.693,19.413l0,0c0,0-5.781,0.106-11.839-1.94c-6.06-2.048-8.347-4.075-8.347-4.075
		c-3.603,8.782,3.625,24.466,16.115,35.718c7.277,6.564,20.574,10.68,20.574,10.68l-20.772,0.584
		c-1.167,20.189,42.342,32.182,42.342,32.182l0,0c-12.753,9.809-27.55,15.779-43.409,15.779c-8.221,0-16.162-1.227-23.703-3.477
		c20.953,17.264,47.885,29.186,77.168,27.648c77.688-4.086,121.541-70.865,123.629-136.445l0.1,0.133c0,0,3.641-1.815,11.422-9.6
		c7.779-7.781,12.621-16.887,12.621-16.887S242.564,86.837,237.68,88.185z"/>
	<path fill="#CE6B00" d="M246.508,65.278C246.563,66.519,246.508,65.398,246.508,65.278L246.508,65.278z"/>
</g>
</svg>
