<?xml version="1.0" encoding="utf-8"?>
<!-- Generator: Adobe Illustrator 16.0.0, SVG Export Plug-In . SVG Version: 6.00 Build 0)  -->
<!DOCTYPE svg PUBLIC "-//W3C//DTD SVG 1.1//EN" "http://www.w3.org/Graphics/SVG/1.1/DTD/svg11.dtd">
<svg version="1.1" id="Capa_1" xmlns="http://www.w3.org/2000/svg" xmlns:xlink="http://www.w3.org/1999/xlink" x="0px" y="0px"
	 width="283.46px" height="283.46px" viewBox="0 0 283.46 283.46" enable-background="new 0 0 283.46 283.46" xml:space="preserve">
<g>
	<g>
		<path fill="#CE6B00" d="M192.813,269.262H90.421c-45.442,0-82.417-36.975-82.417-82.42V96.613
			c0-45.444,36.975-82.414,82.417-82.414h102.393c45.44,0,82.414,36.97,82.414,82.414v90.229
			C275.227,232.287,238.253,269.262,192.813,269.262z M90.421,32.514c-35.346,0-64.1,28.754-64.1,64.099v90.229
			c0,35.348,28.754,64.102,64.1,64.102h102.393c35.342,0,64.098-28.754,64.098-64.102V96.613c0-35.345-28.755-64.099-64.098-64.099
			H90.421z"/>
	</g>
	<g>
		<path fill="#CE6B00" d="M141.617,215.092c-40.455,0-73.361-32.91-73.361-73.361c0-40.458,32.906-73.361,73.361-73.361
			c40.453,0,73.36,32.903,73.36,73.361C214.978,182.182,182.07,215.092,141.617,215.092z M141.617,86.679
			c-30.354,0-55.049,24.694-55.049,55.051c0,30.35,24.695,55.045,55.049,55.045c30.352,0,55.046-24.695,55.046-55.045
			C196.663,111.373,171.969,86.679,141.617,86.679z"/>
	</g>
	<g>
		<path fill="#CE6B00" d="M229.077,70.625c0,8.402-6.813,15.218-15.219,15.218c-8.409,0-15.226-6.816-15.226-15.218
			c0-8.409,6.817-15.225,15.226-15.225C222.264,55.399,229.077,62.215,229.077,70.625z"/>
	</g>
</g>
</svg>
