<?xml version="1.0" encoding="utf-8"?>
<!-- Generator: Adobe Illustrator 16.0.0, SVG Export Plug-In . SVG Version: 6.00 Build 0)  -->
<!DOCTYPE svg PUBLIC "-//W3C//DTD SVG 1.1//EN" "http://www.w3.org/Graphics/SVG/1.1/DTD/svg11.dtd">
<svg version="1.1" id="Capa_1" xmlns="http://www.w3.org/2000/svg" xmlns:xlink="http://www.w3.org/1999/xlink" x="0px" y="0px"
	 width="283.46px" height="283.46px" viewBox="0 0 283.46 283.46" enable-background="new 0 0 283.46 283.46" xml:space="preserve">
<g>
	<g>
		<path fill="#CE6B00" d="M141.728,259.961c-21.547,0-42.682-5.701-61.398-16.523l-47.964,16.523l9.855-50.793
			c-15.453-21.174-23.598-46.088-23.598-72.312c0-67.878,55.223-123.103,123.104-123.103c67.885,0,123.107,55.225,123.107,123.103
			C264.835,204.736,209.612,259.961,141.728,259.961z M82.54,223.303l3.708,2.324c16.722,10.482,35.905,16.021,55.479,16.021
			c57.783,0,104.791-47.008,104.791-104.792c0-57.781-47.008-104.788-104.791-104.788c-57.781,0-104.787,47.007-104.787,104.788
			c0,23.509,7.701,45.784,22.259,64.411l2.57,3.289l-5.386,27.758L82.54,223.303z"/>
	</g>
	<path fill="#CE6B00" d="M79.581,89.56c0,0,7.221-12.627,13.108-13.35c5.89-0.724,13.471-0.724,15.515,3.127
		c2.043,3.843,11.184,26.216,11.184,26.216s1.562,3.85-0.843,7.577c-2.403,3.729-7.813,9.136-7.813,9.136s-3.007,3.853,0,7.94
		c3.007,4.09,7.669,11.604,17.319,21.245c9.63,9.645,28.134,16.516,28.134,16.516s2.648,0.357,4.33-1.322
		c1.684-1.686,10.824-13.109,10.824-13.109s2.94-3.787,7.817-1.559c4.867,2.225,25.971,12.74,25.971,12.74s2.467,0.904,2.467,4.629
		c0,3.732-1.509,12.852-4.594,15.934c-3.083,3.09-12.103,12.59-25.65,12.59c-13.554,0-45.82-11.021-63.016-28.217
		c-17.195-17.197-32.469-34.637-36.073-50.509C74.655,103.268,75.133,96.096,79.581,89.56z"/>
</g>
</svg>
